# xmcd
#
# Track frame offsets: 
#        150
#        8781
#        28790
#        48400
#        66967
#        89393
#        107377
#        123579
#        140297
#        154339
#        176862
#        195232
#        203577
#        222800
#
# Disc length: 3236 seconds
#
# Revision: 0
# Processed by: cddbd v1.5.2PL0 Copyright (c) Steve Scherf et al.
# Submitted via: ExactAudioCopy v0.99pb5
#
DISCID=bd0ca20e
DTITLE=Alicia Keys - As I Am
DYEAR=1900
DGENRE=JPop
TTITLE0=As I Am
TTITLE1=Go Ahead
TTITLE2=Superwoman
TTITLE3=No One
TTITLE4=Like You´ll Never See Me Again
TTITLE5=Lesson Learned
TTITLE6=Wreckless Love
TTITLE7=The Thing About Love
TTITLE8=Teenage Love Affair
TTITLE9=I Need You
TTITLE10=Where Do We Go From Here
TTITLE11=Prelude To A Kiss
TTITLE12=Tell You Something
TTITLE13=Sure Looks Good To Me
EXTD=
EXTT0=
EXTT1=
EXTT2=
EXTT3=
EXTT4=
EXTT5=
EXTT6=
EXTT7=
EXTT8=
EXTT9=
EXTT10=
EXTT11=
EXTT12=
EXTT13=
PLAYORDER=
